<?xml version="1.0"?>
<svg id="detroit-boundary" xmlns="http://www.w3.org/2000/svg" version="1.2" viewBox="0 0 800 561">
  <g>
    <path
      d="M 724.16 272.67 724.9 271.07 729.83 271.88 724.16 272.67 Z M 269.05 560.19 263.88 552.65 257.07 545.3 256.63 540.42 253.26 533.83 250.32 532.71 266.76 506.59 274.99 491.94 268.16 483.32 262.34 469.32 256.31 461.27 267.59 454.96 275.83 453.1 275.02 448.89 277.28 445.11 288.69 442.15 292.92 444.14 295.57 451.83 297.77 452.79 307.99 447.45 310.26 444.45 312.72 434.16 308.29 415.73 312.33 411.88 313.97 405.71 311.92 399.98 285.63 351.14 278.57 353.56 277.66 325.75 284.64 324.56 290.52 320.32 293.46 314.9 295.74 303.64 297.61 288.68 297.21 282.96 193.86 285.9 194.86 327.26 154.09 328.11 154.21 348.47 133.35 349.08 127.66 338.23 113.4 346.11 112.45 328.98 107.24 329.25 106.65 308.23 92.58 308.82 72.83 311.7 51.51 312.21 50.62 306.84 47.84 268.25 47.14 268.28 45.71 206.06 28.1 206.61 26.09 124.46 3.84 125.27 2.01 64.48 1 23.04 103.33 19.5 184.65 16.95 193.79 16.27 350.25 11.71 392.08 10.27 403.57 11.19 438.47 10.05 474.52 9.49 526.26 7.7 577.81 6.17 608.33 4.62 671.12 2.63 677.7 2.07 723.81 1 735.22 1 731.04 7 711.98 41.34 712.5 42.74 761.87 70.12 789.98 86.02 799 91.64 797.96 99.43 787.42 130.51 781.54 146.58 773.73 160.12 746.02 174.57 734.63 178.31 722.46 181.2 721.97 182.57 737.19 214.06 756.91 253.7 755.66 254.38 760.32 263.97 752.92 268.07 732.89 270.92 729.15 270.37 723.94 271.41 722.04 272.96 702.74 275.27 700.78 274.94 693.64 275.09 691.16 274.56 683.86 273.55 679.88 273.09 676.23 272.27 666.56 272.83 657.6 275.43 643.51 281.89 641.24 282.58 630.98 284.99 621.03 291.09 621.03 292.95 608.35 302.86 593.54 317.22 585.86 323.44 578.45 328.06 556.6 339.38 555.86 339.56 549.98 342.94 499.81 362.81 499.42 361.83 483.09 367.67 471.27 373.94 443.57 395.18 432.37 407.86 413.81 435.16 402.45 450.39 398.27 454.79 391.22 465.93 367.06 459.54 363 459.52 357.29 462.75 355.96 467.04 358.11 480.13 360.63 489.71 351.69 490.25 331.39 484.61 322.66 480.77 318.79 480.65 289.41 527.39 269.05 560.19 Z"
      fill="#004445"
    />
  </g>
</svg>
